<svg xmlns="http://www.w3.org/2000/svg" xmlns:svg="http://www.w3.org/2000/svg" id="Layer_1" width="177.2" height="203.657" x="0" y="0" version="1.1" viewBox="0 0 177.2 203.657" xml:space="preserve"><metadata id="metadata199"/><style id="style150" type="text/css">.st0{fill:#67cad6}.st1{fill:#fff}</style><g id="g192" transform="translate(-13.4,-10.242498)"><path id="path152" d="m 87.4,91.5 c 0,17 -13.8,30.8 -30.8,30.8 -17,0 -30.8,-13.8 -30.8,-30.8 0,-17 13.8,-30.8 30.8,-30.8 17,0 30.8,13.8 30.8,30.8 z" class="st0"/><path id="path154" d="m 178.1,91.5 c 0,17 -13.8,30.8 -30.8,30.8 -17,0 -30.8,-13.8 -30.8,-30.8 0,-17 13.8,-30.8 30.8,-30.8 17,0 30.8,13.8 30.8,30.8 z" class="st0"/><path id="path156" d="m 63.4,133.9 v 8.2 c 0,20.3 9.7,28.6 27,28.6 h 1.5 c 2.4,0 3.7,-1.3 3.7,-3.7 v -9.6 c 0,-2.2 -0.8,-3.7 -2.9,-3.7 h -2 c -6,0 -10.4,-3.7 -10.4,-11.6 V 127.4 C 92.2,119.6 100,106.3 100,91.1 100,67.2 80.5,47.8 56.7,47.8 c -23.9,0 -43.3,19.5 -43.3,43.3 0,23.9 19.5,43.3 43.3,43.3 2.3,0 4.5,-0.2 6.7,-0.5 z M 30.3,91 c 0,-14.6 11.8,-26.4 26.4,-26.4 14.6,0 26.4,11.8 26.4,26.4 0,14.6 -11.8,26.4 -26.4,26.4 -14.6,0 -26.4,-11.8 -26.4,-26.4 z"/><path id="path158" d="m 150.1,184.1 c -3.7,-3.7 -6.8,-5.9 -9.3,-6.5 -2.5,-0.6 -4.6,-0.9 -6.5,-0.7 -5.4,0.4 -10.5,3 -15.5,7.9 l -0.7,-0.7 c -3.7,-3.7 -6.8,-5.9 -9.3,-6.5 -2.5,-0.6 -4.6,-0.9 -6.5,-0.7 -5.4,0.4 -10.6,3.1 -15.6,8 -5,-5 -10.2,-7.6 -15.6,-8 -1.9,-0.2 -4.1,0.1 -6.5,0.7 -2.5,0.6 -5.6,2.8 -9.3,6.5 l -8.7,8.7 c -0.8,0.8 -0.8,1.6 0,2.4 l 12.1,12.1 c 0.8,0.8 1.6,0.8 2.4,0 l 5.6,-5.6 c 1.3,-1.4 2.8,-1.9 4.3,-1.7 1.5,0.2 2.9,1 4.3,2.4 l 11.5,11.5 v 0 0 l 11.5,-11.5 c 1.3,-1.4 2.8,-2.1 4.3,-2.4 1.1,-0.2 2.2,0.1 3.2,0.8 l 13.1,13.1 11.5,-11.5 c 1.3,-1.4 2.8,-2.1 4.3,-2.4 1.5,-0.2 2.9,0.3 4.3,1.7 l 5.6,5.6 c 0.8,0.8 1.6,0.8 2.4,0 l 12.1,-12.1 c 0.8,-0.8 0.8,-1.6 0,-2.4 z"/><path id="path160" d="M 147.3,47.7 C 123.5,47.7 104,67.2 104,91 c 0,15.2 7.9,28.5 19.7,36.3 V 142 c 0,7.9 -4.4,11.6 -10.4,11.6 h -2 c -2,0 -2.9,1.5 -2.9,3.7 v 9.6 c 0,2.4 1.3,3.7 3.7,3.7 h 1.5 c 17.3,0 27,-8.2 27,-28.6 v -8.2 c 2.2,0.3 4.4,0.5 6.7,0.5 23.9,0 43.3,-19.5 43.3,-43.3 0.1,-23.8 -19.4,-43.3 -43.3,-43.3 z m 0,69.7 c -14.6,0 -26.4,-11.8 -26.4,-26.4 0,-14.6 11.8,-26.4 26.4,-26.4 14.6,0 26.4,11.8 26.4,26.4 0,14.6 -11.7,26.4 -26.4,26.4 z"/><path id="path162" d="m 48.5,24.8 23,9 c 2.4,0.8 4.1,-0.3 4.4,-2.8 l 0.9,-6.7 c 0.3,-2.2 -0.5,-3.8 -2.6,-4.6 l -23,-9.2 c -2.4,-0.8 -4.1,0.3 -4.4,2.8 l -0.9,6.8 c -0.3,2.2 0.5,3.9 2.6,4.7 z"/><path id="path164" d="m 124.1,31 c 0.3,2.5 2,3.6 4.4,2.8 l 23,-9 c 2.1,-0.8 2.9,-2.4 2.6,-4.6 l -0.9,-6.8 c -0.3,-2.5 -2,-3.6 -4.4,-2.8 l -23,9.2 c -2.1,0.8 -2.9,2.4 -2.6,4.6 z"/><path id="path166" d="m 158.4,92.2 c 0,5.6 -4.6,10.2 -10.2,10.2 -5.6,0 -10.2,-4.6 -10.2,-10.2 0,-5.6 4.6,-10.2 10.2,-10.2 5.6,0.1 10.2,4.6 10.2,10.2 z"/><path id="path168" d="m 158.4,84.1 c 0,2.8 -2.3,5.1 -5.1,5.1 -2.8,0 -5.1,-2.3 -5.1,-5.1 0,-2.8 2.3,-5.1 5.1,-5.1 2.8,0 5.1,2.3 5.1,5.1 z" class="st1"/><path id="path190" d="M 56.7,100.5 C 52.1,100.5 48,96.9 48,92.9 V 79.5 h -8.2 v 13.3 c 0,8.6 7.7,15.8 16.9,15.8 9.1,0 16.8,-7.2 16.8,-15.8 V 79.5 h -8.2 v 13.3 c 0,4.1 -4.1,7.7 -8.6,7.7 z"/></g></svg>